nColumns=19
nRows=126
DataType=double
version=3
OpenSimVersion=4.1
endheader
time	ground_force_1_vx	ground_force_1_vy	ground_force_1_vz	ground_force_1_px	ground_force_1_py	ground_force_1_pz	ground_force_1_mx	ground_force_1_my	ground_force_1_mz	ground_force_2_vx	ground_force_2_vy	ground_force_2_vz	ground_force_2_px	ground_force_2_py	ground_force_2_pz	ground_force_2_mx	ground_force_2_my	ground_force_2_mz
1.4	0	0	0	2.60199e-05	0	0.00040293	0	0	0	-99.3379	2197.58	85.7275	0.692253	0	-0.408296	0	-14.0126	0
1.41	0	0	0	2.60199e-05	0	0.00040293	0	0	0	15.2316	2142.64	77.7809	0.647448	0	-0.411577	0	-13.8285	0
1.42	0	0	0	2.60199e-05	0	0.00040293	0	0	0	116.176	2020.3	70.6353	0.605327	0	-0.411306	0	-12.1255	0
1.43	0	0	0	2.60199e-05	0	0.00040293	0	0	0	200.273	1827.15	63.5963	0.565335	0	-0.408445	0	-8.81937	0
1.44	0	0	0	2.60199e-05	0	0.00040293	0	0	0	268.336	1551.72	42.2962	0.521655	0	-0.407295	0	-4.32067	0
1.45	0	0	0	2.60199e-05	0	0.00040293	0	0	0	301.346	1212.49	12.2676	0.473584	0	-0.40902	-0	0.450453	-0
1.46	0	0	0	2.60199e-05	0	0.00040293	0	0	0	281.71	858.813	-7.39983	0.427953	0	-0.409974	-0	4.37817	-0
1.47	0	0	0	2.60199e-05	0	0.00040293	0	0	0	216.422	543.117	-12.4286	0.397109	0	-0.406503	-0	6.67047	-0
1.48	0	0	0	2.60199e-05	0	0.00040293	0	0	0	131.043	295.157	-13.3417	0.387554	0	-0.403849	-0	7.15828	-0
1.49	0	0	0	2.60199e-05	0	0.00040293	0	0	0	60.4408	126.1	-14.7314	0.370371	0	-0.417037	-0	6.21059	-0
1.5	0	0	0	2.60199e-05	0	0.00040293	0	0	0	22.3112	40.6024	-11.9968	0.304078	0	-0.443262	-0	4.47619	-0
1.51	0	0	0	2.60199e-05	0	0.00040293	0	0	0	7.18306	16.7001	-4.6471	0.448815	0	-0.324889	-0	2.64771	-0
1.52	0	0	0	2.60199e-05	0	0.00040293	0	0	0	-0.579806	10.7843	0.548589	0.812503	0	-0.148705	-0	1.25368	-0
1.53	0	0	0	2.60199e-05	0	0.00040293	0	0	0	0	0	0	2.60199e-05	0	0.00040293	0	0	0
1.54	0	0	0	2.60199e-05	0	0.00040293	0	0	0	0	0	0	2.60199e-05	0	0.00040293	0	0	0
1.55	0	0	0	2.60199e-05	0	0.00040293	0	0	0	0	0	0	2.60199e-05	0	0.00040293	0	0	0
1.56	0	0	0	2.60199e-05	0	0.00040293	0	0	0	0	0	0	2.60199e-05	0	0.00040293	0	0	0
1.57	0	0	0	2.60199e-05	0	0.00040293	0	0	0	0	0	0	2.60199e-05	0	0.00040293	0	0	0
1.58	0	0	0	2.60199e-05	0	0.00040293	0	0	0	0	0	0	2.60199e-05	0	0.00040293	0	0	0
1.59	0	0	0	2.60199e-05	0	0.00040293	0	0	0	0	0	0	2.60199e-05	0	0.00040293	0	0	0
1.6	0	0	0	2.60199e-05	0	0.00040293	0	0	0	0	0	0	2.60199e-05	0	0.00040293	0	0	0
1.61	-10.2341	18.7831	-5.53108	0.994711	0	-0.212596	-0	0.343138	-0	0	0	0	2.60199e-05	0	0.00040293	0	0	0
1.62	-26.5065	81.9799	-15.6174	0.921114	0	-0.256941	-0	2.4685	-0	0	0	0	2.60199e-05	0	0.00040293	0	0	0
1.63	-80.3429	279.364	-30.273	0.930355	0	-0.263115	-0	4.80139	-0	0	0	0	2.60199e-05	0	0.00040293	0	0	0
1.64	-160.033	667.068	-44.2354	0.925641	0	-0.268331	-0	6.51398	-0	0	0	0	2.60199e-05	0	0.00040293	0	0	0
1.65	-210.37	1158.89	-45.4371	0.901447	0	-0.275768	-0	6.95259	-0	0	0	0	2.60199e-05	0	0.00040293	0	0	0
1.66	-232.91	1598.75	-24.1039	0.867602	0	-0.283624	-0	6.08998	-0	0	0	0	2.60199e-05	0	0.00040293	0	0	0
1.67	-264.391	1899.37	10.2408	0.835027	0	-0.289166	-0	4.6713	-0	0	0	0	2.60199e-05	0	0.00040293	0	0	0
1.68	-271.797	2088.89	30.6608	0.802019	0	-0.292451	-0	3.8301	-0	0	0	0	2.60199e-05	0	0.00040293	0	0	0
1.69	-224.795	2230.34	22.6146	0.765671	0	-0.294292	-0	4.37504	-0	0	0	0	2.60199e-05	0	0.00040293	0	0	0
1.7	-147.257	2328.25	-0.294908	0.729707	0	-0.293943	-0	6.29934	-0	0	0	0	2.60199e-05	0	0.00040293	0	0	0
1.71	-75.0491	2353.28	-19.6812	0.696406	0	-0.291914	-0	8.86115	-0	0	0	0	2.60199e-05	0	0.00040293	0	0	0
1.72	-5.3656	2289.36	-31.5571	0.662492	0	-0.290347	-0	11.0524	-0	0	0	0	2.60199e-05	0	0.00040293	0	0	0
1.73	72.7734	2139.54	-35.6069	0.625563	0	-0.290044	-0	12.0777	-0	0	0	0	2.60199e-05	0	0.00040293	0	0	0
1.74	152.584	1908.34	-28.4626	0.585937	0	-0.289855	-0	11.649	-0	0	0	0	2.60199e-05	0	0.00040293	0	0	0
1.75	228.382	1595.73	-14.081	0.542412	0	-0.289205	-0	10.0319	-0	0	0	0	2.60199e-05	0	0.00040293	0	0	0
1.76	275.755	1225.32	-3.40675	0.496888	0	-0.288383	-0	7.82989	-0	0	0	0	2.60199e-05	0	0.00040293	0	0	0
1.77	259.736	845.092	-1.14994	0.45372	0	-0.287386	-0	5.64232	-0	0	0	0	2.60199e-05	0	0.00040293	0	0	0
1.78	189.901	507.491	-3.04683	0.41418	0	-0.285563	-0	3.83418	-0	0	0	0	2.60199e-05	0	0.00040293	0	0	0
1.79	105.578	258.596	-4.10699	0.392331	0	-0.281111	-0	2.51946	-0	0	0	0	2.60199e-05	0	0.00040293	0	0	0
1.8	41.2749	108.282	-3.16635	0.404871	0	-0.271168	-0	1.66204	-0	0	0	0	2.60199e-05	0	0.00040293	0	0	0
1.81	8.75695	35.4867	-1.42003	0.443484	0	-0.244543	-0	1.16395	-0	0	0	0	2.60199e-05	0	0.00040293	0	0	0
1.82	-2.06507	10.7331	0.00490466	0.690259	0	-0.154925	-0	0.901739	-0	0	0	0	2.60199e-05	0	0.00040293	0	0	0
1.83	0	0	0	2.60199e-05	0	0.00040293	0	0	0	0	0	0	2.60199e-05	0	0.00040293	0	0	0
1.84	0	0	0	2.60199e-05	0	0.00040293	0	0	0	0	0	0	2.60199e-05	0	0.00040293	0	0	0
1.85	0	0	0	2.60199e-05	0	0.00040293	0	0	0	0	0	0	2.60199e-05	0	0.00040293	0	0	0
1.86	0	0	0	2.60199e-05	0	0.00040293	0	0	0	0	0	0	2.60199e-05	0	0.00040293	0	0	0
1.87	0	0	0	2.60199e-05	0	0.00040293	0	0	0	0	0	0	2.60199e-05	0	0.00040293	0	0	0
1.88	0	0	0	2.60199e-05	0	0.00040293	0	0	0	0	0	0	2.60199e-05	0	0.00040293	0	0	0
1.89	0	0	0	2.60199e-05	0	0.00040293	0	0	0	0	0	0	2.60199e-05	0	0.00040293	0	0	0
1.9	0	0	0	2.60199e-05	0	0.00040293	0	0	0	0	0	0	2.60199e-05	0	0.00040293	0	0	0
1.91	0	0	0	2.60199e-05	0	0.00040293	0	0	0	0	0	0	2.60199e-05	0	0.00040293	0	0	0
1.92	0	0	0	2.60199e-05	0	0.00040293	0	0	0	0	0	0	2.60199e-05	0	0.00040293	0	0	0
1.93	0	0	0	2.60199e-05	0	0.00040293	0	0	0	-7.84054	12.5765	-3.11169	0.830572	0	-0.37293	-0	5.7227	-0
1.94	0	0	0	2.60199e-05	0	0.00040293	0	0	0	-25.217	52.6031	-3.65596	0.898098	0	-0.437885	-0	4.44501	-0
1.95	0	0	0	2.60199e-05	0	0.00040293	0	0	0	-77.6143	193.99	3.74495	0.9119	0	-0.442416	-0	1.22955	-0
1.96	0	0	0	2.60199e-05	0	0.00040293	0	0	0	-172.91	513.924	27.853	0.913882	0	-0.431537	0	-3.39436	0
1.97	0	0	0	2.60199e-05	0	0.00040293	0	0	0	-258.801	979.823	64.2528	0.900083	0	-0.41871	0	-8.1513	0
1.98	0	0	0	2.60199e-05	0	0.00040293	0	0	0	-291.525	1470.82	85.4585	0.869418	0	-0.408607	0	-11.5632	0
1.99	0	0	0	2.60199e-05	0	0.00040293	0	0	0	-299.918	1874.29	68.0926	0.831966	0	-0.403512	0	-12.8019	0
2	0	0	0	2.60199e-05	0	0.00040293	0	0	0	-288.804	2133.33	27.9736	0.793823	0	-0.401726	0	-12.1865	0
2.01	0	0	0	2.60199e-05	0	0.00040293	0	0	0	-248.587	2288	3.12861	0.755175	0	-0.400114	0	-10.825	0
2.02	0	0	0	2.60199e-05	0	0.00040293	0	0	0	-178.614	2378.16	7.20877	0.716504	0	-0.398286	0	-9.71467	0
2.03	0	0	0	2.60199e-05	0	0.00040293	0	0	0	-84.5669	2386.12	21.4068	0.676905	0	-0.398007	0	-9.11187	0
2.04	0	0	0	2.60199e-05	0	0.00040293	0	0	0	25.6505	2289.66	27.3875	0.634444	0	-0.399318	0	-8.58515	0
2.05	0	0	0	2.60199e-05	0	0.00040293	0	0	0	143.463	2092.32	25.7765	0.589468	0	-0.400273	0	-7.4814	0
2.06	0	0	0	2.60199e-05	0	0.00040293	0	0	0	244.081	1807.46	21.6659	0.545086	0	-0.399691	0	-5.3741	0
2.07	0	0	0	2.60199e-05	0	0.00040293	0	0	0	301.071	1450.2	12.5536	0.504044	0	-0.398335	0	-2.32355	0
2.08	0	0	0	2.60199e-05	0	0.00040293	0	0	0	302.423	1044.9	-3.04558	0.465158	0	-0.398329	-0	1.07709	-0
2.09	0	0	0	2.60199e-05	0	0.00040293	0	0	0	255.147	646.655	-17.4935	0.421484	0	-0.401611	-0	3.92565	-0
2.1	0	0	0	2.60199e-05	0	0.00040293	0	0	0	176.307	333.741	-21.6536	0.373792	0	-0.407435	-0	5.46003	-0
2.11	0	0	0	2.60199e-05	0	0.00040293	0	0	0	90.7863	145.768	-15.1875	0.369712	0	-0.406442	-0	5.46704	-0
2.12	0	0	0	2.60199e-05	0	0.00040293	0	0	0	29.4204	54.566	-6.05865	0.475995	0	-0.381811	-0	4.35576	-0
2.13	0	0	0	2.60199e-05	0	0.00040293	0	0	0	5.96849	18.4651	-1.67932	0.637613	0	-0.311305	-0	2.85802	-0
2.14	0	0	0	2.60199e-05	0	0.00040293	0	0	0	0	0	0	2.60199e-05	0	0.00040293	0	0	0
2.15	0	0	0	2.60199e-05	0	0.00040293	0	0	0	0	0	0	2.60199e-05	0	0.00040293	0	0	0
2.16	0	0	0	2.60199e-05	0	0.00040293	0	0	0	0	0	0	2.60199e-05	0	0.00040293	0	0	0
2.17	0	0	0	2.60199e-05	0	0.00040293	0	0	0	0	0	0	2.60199e-05	0	0.00040293	0	0	0
2.18	0	0	0	2.60199e-05	0	0.00040293	0	0	0	0	0	0	2.60199e-05	0	0.00040293	0	0	0
2.19	0	0	0	2.60199e-05	0	0.00040293	0	0	0	0	0	0	2.60199e-05	0	0.00040293	0	0	0
2.2	0	0	0	2.60199e-05	0	0.00040293	0	0	0	0	0	0	2.60199e-05	0	0.00040293	0	0	0
2.21	0	0	0	2.60199e-05	0	0.00040293	0	0	0	0	0	0	2.60199e-05	0	0.00040293	0	0	0
2.22	0	0	0	2.60199e-05	0	0.00040293	0	0	0	0	0	0	2.60199e-05	0	0.00040293	0	0	0
2.23	-5.47631	12.1029	-3.6086	0.948224	0	-0.226504	-0	0.333638	-0	0	0	0	2.60199e-05	0	0.00040293	0	0	0
2.24	-18.17	52.1481	-9.7544	0.911589	0	-0.265947	-0	1.16233	-0	0	0	0	2.60199e-05	0	0.00040293	0	0	0
2.25	-60.8501	186.985	-19.575	0.92375	0	-0.272744	-0	2.07171	-0	0	0	0	2.60199e-05	0	0.00040293	0	0	0
2.26	-134.743	473.654	-30.1104	0.926764	0	-0.276476	-0	2.49646	-0	0	0	0	2.60199e-05	0	0.00040293	0	0	0
2.27	-191.285	871.901	-33.7209	0.90681	0	-0.282388	-0	1.95886	-0	0	0	0	2.60199e-05	0	0.00040293	0	0	0
2.28	-201.606	1287.29	-21.7611	0.866879	0	-0.290316	-0	0.43049	-0	0	0	0	2.60199e-05	0	0.00040293	0	0	0
2.29	-208.016	1647.48	5.98702	0.824873	0	-0.296889	0	-1.47553	0	0	0	0	2.60199e-05	0	0.00040293	0	0	0
2.3	-221.654	1910.42	33.4143	0.787981	0	-0.300424	0	-2.70222	0	0	0	0	2.60199e-05	0	0.00040293	0	0	0
2.31	-204.7	2094.29	39.1336	0.750965	0	-0.301915	0	-2.32235	0	0	0	0	2.60199e-05	0	0.00040293	0	0	0
2.32	-141.292	2232.37	20.8848	0.712439	0	-0.301934	0	-0.124474	0	0	0	0	2.60199e-05	0	0.00040293	0	0	0
2.33	-61.4075	2316.96	-3.42547	0.675742	0	-0.300259	-0	3.24076	-0	0	0	0	2.60199e-05	0	0.00040293	0	0	0
2.34	11.1747	2319.3	-19.8697	0.641267	0	-0.297763	-0	6.63729	-0	0	0	0	2.60199e-05	0	0.00040293	0	0	0
2.35	82.6606	2226.16	-27.2387	0.606052	0	-0.29604	-0	9.01015	-0	0	0	0	2.60199e-05	0	0.00040293	0	0	0
2.36	153.476	2041.58	-24.924	0.568659	0	-0.295272	-0	9.79967	-0	0	0	0	2.60199e-05	0	0.00040293	0	0	0
2.37	223.287	1770.59	-12.0282	0.528202	0	-0.294456	-0	9.08351	-0	0	0	0	2.60199e-05	0	0.00040293	0	0	0
2.38	282.862	1422.91	3.54205	0.484334	0	-0.29323	-0	7.4368	-0	0	0	0	2.60199e-05	0	0.00040293	0	0	0
2.39	298.886	1036.14	10.7541	0.439922	0	-0.291827	-0	5.57625	-0	0	0	0	2.60199e-05	0	0.00040293	0	0	0
2.4	254.819	664.921	8.2929	0.394038	0	-0.29077	-0	4.003	-0	0	0	0	2.60199e-05	0	0.00040293	0	0	0
2.41	172.128	365.659	3.62506	0.350058	0	-0.289211	-0	2.8748	-0	0	0	0	2.60199e-05	0	0.00040293	0	0	0
2.42	84.9266	170.98	2.47951	0.349476	0	-0.282649	-0	2.12143	-0	0	0	0	2.60199e-05	0	0.00040293	0	0	0
2.43	25.3658	65.7391	3.7382	0.430958	0	-0.261231	-0	1.6162	-0	0	0	0	2.60199e-05	0	0.00040293	0	0	0
2.44	2.05472	20.1896	3.55877	0.642349	0	-0.199604	-0	1.2481	-0	0	0	0	2.60199e-05	0	0.00040293	0	0	0
2.45	0	0	0	2.60199e-05	0	0.00040293	0	0	0	0	0	0	2.60199e-05	0	0.00040293	0	0	0
2.46	0	0	0	2.60199e-05	0	0.00040293	0	0	0	0	0	0	2.60199e-05	0	0.00040293	0	0	0
2.47	0	0	0	2.60199e-05	0	0.00040293	0	0	0	0	0	0	2.60199e-05	0	0.00040293	0	0	0
2.48	0	0	0	2.60199e-05	0	0.00040293	0	0	0	0	0	0	2.60199e-05	0	0.00040293	0	0	0
2.49	0	0	0	2.60199e-05	0	0.00040293	0	0	0	0	0	0	2.60199e-05	0	0.00040293	0	0	0
2.5	0	0	0	2.60199e-05	0	0.00040293	0	0	0	0	0	0	2.60199e-05	0	0.00040293	0	0	0
2.51	0	0	0	2.60199e-05	0	0.00040293	0	0	0	0	0	0	2.60199e-05	0	0.00040293	0	0	0
2.52	0	0	0	2.60199e-05	0	0.00040293	0	0	0	0	0	0	2.60199e-05	0	0.00040293	0	0	0
2.53	0	0	0	2.60199e-05	0	0.00040293	0	0	0	0	0	0	2.60199e-05	0	0.00040293	0	0	0
2.54	0	0	0	2.60199e-05	0	0.00040293	0	0	0	0	0	0	2.60199e-05	0	0.00040293	0	0	0
2.55	0	0	0	2.60199e-05	0	0.00040293	0	0	0	-8.70341	13.5398	-2.17214	0.941931	0	-0.316209	-0	6.92837	-0
2.56	0	0	0	2.60199e-05	0	0.00040293	0	0	0	-24.8922	51.6029	-2.22001	0.912826	0	-0.417504	-0	6.03984	-0
2.57	0	0	0	2.60199e-05	0	0.00040293	0	0	0	-71.7401	187.064	5.73651	0.898357	0	-0.433247	-0	2.92373	-0
2.58	0	0	0	2.60199e-05	0	0.00040293	0	0	0	-155.201	492.121	30.6224	0.89726	0	-0.424757	0	-1.97377	0
2.59	0	0	0	2.60199e-05	0	0.00040293	0	0	0	-227.503	930.224	68.4214	0.883212	0	-0.412211	0	-7.34269	0
2.6	0	0	0	2.60199e-05	0	0.00040293	0	0	0	-260.777	1387.27	91.636	0.852618	0	-0.40183	0	-11.5353	0
2.61	0	0	0	2.60199e-05	0	0.00040293	0	0	0	-283.611	1782.01	75.7333	0.815164	0	-0.396017	0	-13.4656	0
2.62	0	0	0	2.60199e-05	0	0.00040293	0	0	0	-282.134	2082.95	34.5962	0.776615	0	-0.39273	0	-13.2168	0
2.63	0	0	0	2.60199e-05	0	0.00040293	0	0	0	-239.282	2306.97	5.12189	0.737649	0	-0.389449	0	-11.8044	0
2.64	0	0	0	2.60199e-05	0	0.00040293	0	0	0	-165.184	2456.56	2.66855	0.699724	0	-0.386591	0	-10.329	0
2.65	0	0	0	2.60199e-05	0	0.00040293	0	0	0	-76.9131	2501.27	12.4631	0.662685	0	-0.385744	0	-9.27931	0
